<mxfile host="Electron" agent="Mozilla/5.0 (Windows NT 10.0; Win64; x64) AppleWebKit/537.36 (KHTML, like Gecko) draw.io/24.7.17 Chrome/128.0.6613.36 Electron/32.0.1 Safari/537.36" version="24.7.17">
  <diagram name="Page-1" id="Wx_-dWEbPbuP_3l3s3aC">
    <mxGraphModel dx="2676" dy="2037" grid="1" gridSize="10" guides="1" tooltips="1" connect="1" arrows="1" fold="1" page="1" pageScale="1" pageWidth="850" pageHeight="1100" math="0" shadow="0">
      <root>
        <mxCell id="0" />
        <mxCell id="1" parent="0" />
        <mxCell id="1KVyCKjMjqigg998JSWU-1" value="Questions" style="whiteSpace=wrap;html=1;align=center;" parent="1" vertex="1">
          <mxGeometry x="605" y="220" width="100" height="40" as="geometry" />
        </mxCell>
        <mxCell id="1KVyCKjMjqigg998JSWU-3" value="d" style="ellipse;whiteSpace=wrap;html=1;align=center;" parent="1" vertex="1">
          <mxGeometry x="645" y="320" width="20" height="20" as="geometry" />
        </mxCell>
        <mxCell id="1KVyCKjMjqigg998JSWU-4" value="" style="shape=link;html=1;rounded=0;exitX=0.5;exitY=1;exitDx=0;exitDy=0;entryX=0.5;entryY=0;entryDx=0;entryDy=0;" parent="1" source="1KVyCKjMjqigg998JSWU-1" target="1KVyCKjMjqigg998JSWU-3" edge="1">
          <mxGeometry width="100" relative="1" as="geometry">
            <mxPoint x="415" y="410" as="sourcePoint" />
            <mxPoint x="515" y="410" as="targetPoint" />
          </mxGeometry>
        </mxCell>
        <mxCell id="1KVyCKjMjqigg998JSWU-5" value="" style="endArrow=none;html=1;rounded=0;entryX=1;entryY=0.5;entryDx=0;entryDy=0;exitX=0.5;exitY=0;exitDx=0;exitDy=0;" parent="1" source="1KVyCKjMjqigg998JSWU-10" target="1KVyCKjMjqigg998JSWU-3" edge="1">
          <mxGeometry width="50" height="50" relative="1" as="geometry">
            <mxPoint x="725" y="370" as="sourcePoint" />
            <mxPoint x="495" y="380" as="targetPoint" />
          </mxGeometry>
        </mxCell>
        <mxCell id="1KVyCKjMjqigg998JSWU-6" value="" style="endArrow=none;html=1;rounded=0;entryX=0;entryY=0.5;entryDx=0;entryDy=0;exitX=0.5;exitY=0;exitDx=0;exitDy=0;" parent="1" source="1KVyCKjMjqigg998JSWU-9" target="1KVyCKjMjqigg998JSWU-3" edge="1">
          <mxGeometry width="50" height="50" relative="1" as="geometry">
            <mxPoint x="585" y="380" as="sourcePoint" />
            <mxPoint x="505" y="390" as="targetPoint" />
          </mxGeometry>
        </mxCell>
        <mxCell id="1KVyCKjMjqigg998JSWU-7" value="" style="endArrow=none;html=1;rounded=0;entryX=0.5;entryY=1;entryDx=0;entryDy=0;" parent="1" target="1KVyCKjMjqigg998JSWU-3" edge="1">
          <mxGeometry width="50" height="50" relative="1" as="geometry">
            <mxPoint x="655" y="400" as="sourcePoint" />
            <mxPoint x="515" y="400" as="targetPoint" />
          </mxGeometry>
        </mxCell>
        <mxCell id="1KVyCKjMjqigg998JSWU-9" value="MCQ" style="whiteSpace=wrap;html=1;align=center;" parent="1" vertex="1">
          <mxGeometry x="485" y="380" width="100" height="40" as="geometry" />
        </mxCell>
        <mxCell id="1KVyCKjMjqigg998JSWU-10" value="text" style="whiteSpace=wrap;html=1;align=center;" parent="1" vertex="1">
          <mxGeometry x="725" y="380" width="100" height="40" as="geometry" />
        </mxCell>
        <mxCell id="1KVyCKjMjqigg998JSWU-11" value="True &amp;amp; False" style="whiteSpace=wrap;html=1;align=center;" parent="1" vertex="1">
          <mxGeometry x="605" y="400" width="100" height="40" as="geometry" />
        </mxCell>
        <mxCell id="1KVyCKjMjqigg998JSWU-14" value="Correct Answer" style="ellipse;whiteSpace=wrap;html=1;align=center;" parent="1" vertex="1">
          <mxGeometry x="605" y="490" width="100" height="40" as="geometry" />
        </mxCell>
        <mxCell id="1KVyCKjMjqigg998JSWU-17" value="" style="endArrow=none;html=1;rounded=0;exitX=0.5;exitY=0;exitDx=0;exitDy=0;entryX=0.25;entryY=1;entryDx=0;entryDy=0;" parent="1" target="1KVyCKjMjqigg998JSWU-9" edge="1">
          <mxGeometry relative="1" as="geometry">
            <mxPoint x="510" y="480" as="sourcePoint" />
            <mxPoint x="555" y="420" as="targetPoint" />
            <Array as="points">
              <mxPoint x="510" y="450" />
            </Array>
          </mxGeometry>
        </mxCell>
        <mxCell id="1KVyCKjMjqigg998JSWU-18" value="" style="endArrow=none;html=1;rounded=0;exitX=0.5;exitY=0;exitDx=0;exitDy=0;entryX=0.5;entryY=1;entryDx=0;entryDy=0;" parent="1" source="1KVyCKjMjqigg998JSWU-14" target="1KVyCKjMjqigg998JSWU-11" edge="1">
          <mxGeometry relative="1" as="geometry">
            <mxPoint x="405" y="430" as="sourcePoint" />
            <mxPoint x="565" y="430" as="targetPoint" />
          </mxGeometry>
        </mxCell>
        <mxCell id="1KVyCKjMjqigg998JSWU-20" value="best answer" style="ellipse;whiteSpace=wrap;html=1;align=center;" parent="1" vertex="1">
          <mxGeometry x="725" y="490" width="100" height="40" as="geometry" />
        </mxCell>
        <mxCell id="1KVyCKjMjqigg998JSWU-21" value="" style="endArrow=none;html=1;rounded=0;exitX=0.5;exitY=0;exitDx=0;exitDy=0;entryX=0.5;entryY=1;entryDx=0;entryDy=0;" parent="1" source="1KVyCKjMjqigg998JSWU-20" target="1KVyCKjMjqigg998JSWU-10" edge="1">
          <mxGeometry relative="1" as="geometry">
            <mxPoint x="385" y="410" as="sourcePoint" />
            <mxPoint x="545" y="410" as="targetPoint" />
          </mxGeometry>
        </mxCell>
        <mxCell id="1KVyCKjMjqigg998JSWU-22" value="Course" style="whiteSpace=wrap;html=1;align=center;" parent="1" vertex="1">
          <mxGeometry x="170" y="240" width="100" height="40" as="geometry" />
        </mxCell>
        <mxCell id="1KVyCKjMjqigg998JSWU-26" value="Min Degree" style="ellipse;whiteSpace=wrap;html=1;align=center;" parent="1" vertex="1">
          <mxGeometry x="70" y="120" width="100" height="40" as="geometry" />
        </mxCell>
        <mxCell id="1KVyCKjMjqigg998JSWU-29" value="" style="endArrow=none;html=1;rounded=0;exitX=0.5;exitY=1;exitDx=0;exitDy=0;entryX=0.25;entryY=0;entryDx=0;entryDy=0;" parent="1" source="1KVyCKjMjqigg998JSWU-39" target="1KVyCKjMjqigg998JSWU-22" edge="1">
          <mxGeometry relative="1" as="geometry">
            <mxPoint x="130" y="130" as="sourcePoint" />
            <mxPoint x="320" y="360" as="targetPoint" />
          </mxGeometry>
        </mxCell>
        <mxCell id="1KVyCKjMjqigg998JSWU-30" value="" style="endArrow=none;html=1;rounded=0;exitX=0.5;exitY=1;exitDx=0;exitDy=0;entryX=0.75;entryY=0;entryDx=0;entryDy=0;" parent="1" source="1KVyCKjMjqigg998JSWU-24" target="1KVyCKjMjqigg998JSWU-22" edge="1">
          <mxGeometry relative="1" as="geometry">
            <mxPoint x="250" y="130" as="sourcePoint" />
            <mxPoint x="330" y="370" as="targetPoint" />
          </mxGeometry>
        </mxCell>
        <mxCell id="1KVyCKjMjqigg998JSWU-31" value="" style="endArrow=none;html=1;rounded=0;exitX=0.5;exitY=1;exitDx=0;exitDy=0;entryX=1;entryY=0;entryDx=0;entryDy=0;" parent="1" source="1KVyCKjMjqigg998JSWU-23" target="1KVyCKjMjqigg998JSWU-22" edge="1">
          <mxGeometry relative="1" as="geometry">
            <mxPoint x="340" y="190" as="sourcePoint" />
            <mxPoint x="340" y="380" as="targetPoint" />
          </mxGeometry>
        </mxCell>
        <mxCell id="1KVyCKjMjqigg998JSWU-32" value="" style="endArrow=none;html=1;rounded=0;exitX=0.5;exitY=1;exitDx=0;exitDy=0;entryX=0;entryY=0;entryDx=0;entryDy=0;" parent="1" source="1KVyCKjMjqigg998JSWU-26" target="1KVyCKjMjqigg998JSWU-22" edge="1">
          <mxGeometry relative="1" as="geometry">
            <mxPoint x="190" y="390" as="sourcePoint" />
            <mxPoint x="350" y="390" as="targetPoint" />
          </mxGeometry>
        </mxCell>
        <mxCell id="1KVyCKjMjqigg998JSWU-33" value="Student" style="whiteSpace=wrap;html=1;align=center;" parent="1" vertex="1">
          <mxGeometry x="-50" y="-150" width="100" height="40" as="geometry" />
        </mxCell>
        <mxCell id="1KVyCKjMjqigg998JSWU-34" value="Instructor" style="whiteSpace=wrap;html=1;align=center;" parent="1" vertex="1">
          <mxGeometry x="-70" y="490" width="100" height="40" as="geometry" />
        </mxCell>
        <mxCell id="1KVyCKjMjqigg998JSWU-35" value="Name" style="ellipse;whiteSpace=wrap;html=1;align=center;" parent="1" vertex="1">
          <mxGeometry x="-170" y="-210" width="100" height="40" as="geometry" />
        </mxCell>
        <mxCell id="1KVyCKjMjqigg998JSWU-37" value="Name" style="ellipse;whiteSpace=wrap;html=1;align=center;" parent="1" vertex="1">
          <mxGeometry x="-160" y="570" width="100" height="40" as="geometry" />
        </mxCell>
        <mxCell id="1KVyCKjMjqigg998JSWU-39" value="Attribute" style="ellipse;whiteSpace=wrap;html=1;align=center;fontStyle=4;" parent="1" vertex="1">
          <mxGeometry x="140" y="80" width="100" height="40" as="geometry" />
        </mxCell>
        <mxCell id="1KVyCKjMjqigg998JSWU-41" value="Id&lt;span style=&quot;color: rgba(0, 0, 0, 0); font-family: monospace; font-size: 0px; text-align: start; text-wrap: nowrap;&quot;&gt;%3CmxGraphModel%3E%3Croot%3E%3CmxCell%20id%3D%220%22%2F%3E%3CmxCell%20id%3D%221%22%20parent%3D%220%22%2F%3E%3CmxCell%20id%3D%222%22%20value%3D%22Name%22%20style%3D%22ellipse%3BwhiteSpace%3Dwrap%3Bhtml%3D1%3Balign%3Dcenter%3B%22%20vertex%3D%221%22%20parent%3D%221%22%3E%3CmxGeometry%20x%3D%22-30%22%20y%3D%22270%22%20width%3D%22100%22%20height%3D%2240%22%20as%3D%22geometry%22%2F%3E%3C%2FmxCell%3E%3C%2Froot%3E%3C%2FmxGraphModel%3E&lt;/span&gt;" style="ellipse;whiteSpace=wrap;html=1;align=center;fontStyle=4;" parent="1" vertex="1">
          <mxGeometry x="-80" y="610" width="100" height="40" as="geometry" />
        </mxCell>
        <mxCell id="1KVyCKjMjqigg998JSWU-43" value="" style="endArrow=none;html=1;rounded=0;exitX=0.5;exitY=0;exitDx=0;exitDy=0;entryX=0.5;entryY=1;entryDx=0;entryDy=0;" parent="1" source="1KVyCKjMjqigg998JSWU-41" target="1KVyCKjMjqigg998JSWU-34" edge="1">
          <mxGeometry relative="1" as="geometry">
            <mxPoint x="-50" y="369.5" as="sourcePoint" />
            <mxPoint x="110" y="369.5" as="targetPoint" />
          </mxGeometry>
        </mxCell>
        <mxCell id="1KVyCKjMjqigg998JSWU-44" value="" style="endArrow=none;html=1;rounded=0;exitX=0.5;exitY=0;exitDx=0;exitDy=0;" parent="1" source="1KVyCKjMjqigg998JSWU-48" edge="1">
          <mxGeometry relative="1" as="geometry">
            <mxPoint x="-40" y="379.5" as="sourcePoint" />
            <mxPoint x="10" y="530" as="targetPoint" />
          </mxGeometry>
        </mxCell>
        <mxCell id="1KVyCKjMjqigg998JSWU-45" value="" style="endArrow=none;html=1;rounded=0;exitX=0.5;exitY=0;exitDx=0;exitDy=0;entryX=0.25;entryY=1;entryDx=0;entryDy=0;" parent="1" source="1KVyCKjMjqigg998JSWU-37" target="1KVyCKjMjqigg998JSWU-34" edge="1">
          <mxGeometry relative="1" as="geometry">
            <mxPoint x="-30" y="389.5" as="sourcePoint" />
            <mxPoint x="130" y="389.5" as="targetPoint" />
          </mxGeometry>
        </mxCell>
        <mxCell id="1KVyCKjMjqigg998JSWU-47" value="" style="endArrow=none;html=1;rounded=0;exitX=0.5;exitY=1;exitDx=0;exitDy=0;entryX=0;entryY=0;entryDx=0;entryDy=0;" parent="1" source="1KVyCKjMjqigg998JSWU-35" target="1KVyCKjMjqigg998JSWU-33" edge="1">
          <mxGeometry relative="1" as="geometry">
            <mxPoint x="260" y="-90.5" as="sourcePoint" />
            <mxPoint x="420" y="-90.5" as="targetPoint" />
          </mxGeometry>
        </mxCell>
        <mxCell id="1KVyCKjMjqigg998JSWU-48" value="Salary" style="ellipse;whiteSpace=wrap;html=1;align=center;" parent="1" vertex="1">
          <mxGeometry x="10" y="580" width="100" height="40" as="geometry" />
        </mxCell>
        <mxCell id="1KVyCKjMjqigg998JSWU-51" value="Age" style="ellipse;whiteSpace=wrap;html=1;align=center;" parent="1" vertex="1">
          <mxGeometry x="-90" y="-270" width="100" height="40" as="geometry" />
        </mxCell>
        <mxCell id="1KVyCKjMjqigg998JSWU-52" value="" style="endArrow=none;html=1;rounded=0;exitX=0.5;exitY=1;exitDx=0;exitDy=0;entryX=0.25;entryY=0;entryDx=0;entryDy=0;" parent="1" target="1KVyCKjMjqigg998JSWU-33" edge="1">
          <mxGeometry relative="1" as="geometry">
            <mxPoint x="-40" y="-230" as="sourcePoint" />
            <mxPoint x="620" y="-130" as="targetPoint" />
          </mxGeometry>
        </mxCell>
        <mxCell id="1KVyCKjMjqigg998JSWU-53" value="Teach" style="shape=rhombus;perimeter=rhombusPerimeter;whiteSpace=wrap;html=1;align=center;" parent="1" vertex="1">
          <mxGeometry x="40" y="340" width="120" height="60" as="geometry" />
        </mxCell>
        <mxCell id="1KVyCKjMjqigg998JSWU-54" value="" style="endArrow=none;html=1;rounded=0;exitX=0.5;exitY=0;exitDx=0;exitDy=0;entryX=0.5;entryY=1;entryDx=0;entryDy=0;" parent="1" source="1KVyCKjMjqigg998JSWU-34" target="1KVyCKjMjqigg998JSWU-53" edge="1">
          <mxGeometry relative="1" as="geometry">
            <mxPoint x="190" y="370" as="sourcePoint" />
            <mxPoint x="350" y="370" as="targetPoint" />
          </mxGeometry>
        </mxCell>
        <mxCell id="1KVyCKjMjqigg998JSWU-55" value="N" style="resizable=0;html=1;whiteSpace=wrap;align=right;verticalAlign=bottom;" parent="1KVyCKjMjqigg998JSWU-54" connectable="0" vertex="1">
          <mxGeometry x="1" relative="1" as="geometry">
            <mxPoint x="-20" y="15" as="offset" />
          </mxGeometry>
        </mxCell>
        <mxCell id="1KVyCKjMjqigg998JSWU-56" value="" style="endArrow=none;html=1;rounded=0;exitX=0;exitY=1;exitDx=0;exitDy=0;entryX=0.5;entryY=0;entryDx=0;entryDy=0;" parent="1" source="1KVyCKjMjqigg998JSWU-22" target="1KVyCKjMjqigg998JSWU-53" edge="1">
          <mxGeometry relative="1" as="geometry">
            <mxPoint x="190" y="370" as="sourcePoint" />
            <mxPoint x="350" y="370" as="targetPoint" />
          </mxGeometry>
        </mxCell>
        <mxCell id="1KVyCKjMjqigg998JSWU-57" value="N" style="resizable=0;html=1;whiteSpace=wrap;align=right;verticalAlign=bottom;" parent="1KVyCKjMjqigg998JSWU-56" connectable="0" vertex="1">
          <mxGeometry x="1" relative="1" as="geometry" />
        </mxCell>
        <mxCell id="Yepnfq_wEx3DEl57RGc4-1" value="Choises" style="ellipse;shape=doubleEllipse;margin=3;whiteSpace=wrap;html=1;align=center;" parent="1" vertex="1">
          <mxGeometry x="460" y="480" width="100" height="40" as="geometry" />
        </mxCell>
        <mxCell id="Yepnfq_wEx3DEl57RGc4-2" value="Exam" style="whiteSpace=wrap;html=1;align=center;" parent="1" vertex="1">
          <mxGeometry x="410" width="100" height="40" as="geometry" />
        </mxCell>
        <mxCell id="Yepnfq_wEx3DEl57RGc4-3" value="Has" style="shape=rhombus;perimeter=rhombusPerimeter;whiteSpace=wrap;html=1;align=center;direction=south;" parent="1" vertex="1">
          <mxGeometry x="545" y="60" width="60" height="120" as="geometry" />
        </mxCell>
        <mxCell id="Yepnfq_wEx3DEl57RGc4-7" value="" style="shape=link;html=1;rounded=0;entryX=1;entryY=0.5;entryDx=0;entryDy=0;exitX=0;exitY=0;exitDx=0;exitDy=0;" parent="1" source="1KVyCKjMjqigg998JSWU-1" target="Yepnfq_wEx3DEl57RGc4-3" edge="1">
          <mxGeometry relative="1" as="geometry">
            <mxPoint x="220" y="340" as="sourcePoint" />
            <mxPoint x="380" y="340" as="targetPoint" />
          </mxGeometry>
        </mxCell>
        <mxCell id="Yepnfq_wEx3DEl57RGc4-8" value="N" style="resizable=0;html=1;whiteSpace=wrap;align=right;verticalAlign=bottom;" parent="Yepnfq_wEx3DEl57RGc4-7" connectable="0" vertex="1">
          <mxGeometry x="1" relative="1" as="geometry" />
        </mxCell>
        <mxCell id="Yepnfq_wEx3DEl57RGc4-9" value="" style="shape=link;html=1;rounded=0;entryX=0;entryY=0.5;entryDx=0;entryDy=0;exitX=1;exitY=1;exitDx=0;exitDy=0;" parent="1" source="Yepnfq_wEx3DEl57RGc4-2" target="Yepnfq_wEx3DEl57RGc4-3" edge="1">
          <mxGeometry relative="1" as="geometry">
            <mxPoint x="220" y="340" as="sourcePoint" />
            <mxPoint x="380" y="340" as="targetPoint" />
          </mxGeometry>
        </mxCell>
        <mxCell id="Yepnfq_wEx3DEl57RGc4-10" value="N" style="resizable=0;html=1;whiteSpace=wrap;align=right;verticalAlign=bottom;" parent="Yepnfq_wEx3DEl57RGc4-9" connectable="0" vertex="1">
          <mxGeometry x="1" relative="1" as="geometry" />
        </mxCell>
        <mxCell id="Yepnfq_wEx3DEl57RGc4-11" value="Degree" style="ellipse;whiteSpace=wrap;html=1;align=center;" parent="1" vertex="1">
          <mxGeometry x="570" y="-10" width="100" height="40" as="geometry" />
        </mxCell>
        <mxCell id="Yepnfq_wEx3DEl57RGc4-12" value="" style="endArrow=none;html=1;rounded=0;entryX=0.5;entryY=1;entryDx=0;entryDy=0;exitX=0.5;exitY=0;exitDx=0;exitDy=0;" parent="1" source="Yepnfq_wEx3DEl57RGc4-3" target="Yepnfq_wEx3DEl57RGc4-11" edge="1">
          <mxGeometry relative="1" as="geometry">
            <mxPoint x="220" y="340" as="sourcePoint" />
            <mxPoint x="380" y="340" as="targetPoint" />
          </mxGeometry>
        </mxCell>
        <mxCell id="Yepnfq_wEx3DEl57RGc4-13" value="Has" style="shape=rhombus;perimeter=rhombusPerimeter;whiteSpace=wrap;html=1;align=center;" parent="1" vertex="1">
          <mxGeometry x="390" y="300" width="120" height="60" as="geometry" />
        </mxCell>
        <mxCell id="Yepnfq_wEx3DEl57RGc4-14" value="" style="shape=link;html=1;rounded=0;exitX=1;exitY=1;exitDx=0;exitDy=0;entryX=0;entryY=0.5;entryDx=0;entryDy=0;" parent="1" source="1KVyCKjMjqigg998JSWU-22" target="Yepnfq_wEx3DEl57RGc4-13" edge="1">
          <mxGeometry relative="1" as="geometry">
            <mxPoint x="280" y="310" as="sourcePoint" />
            <mxPoint x="450" y="300" as="targetPoint" />
          </mxGeometry>
        </mxCell>
        <mxCell id="Yepnfq_wEx3DEl57RGc4-15" value="1" style="resizable=0;html=1;whiteSpace=wrap;align=right;verticalAlign=bottom;" parent="Yepnfq_wEx3DEl57RGc4-14" connectable="0" vertex="1">
          <mxGeometry x="1" relative="1" as="geometry" />
        </mxCell>
        <mxCell id="Yepnfq_wEx3DEl57RGc4-16" value="" style="endArrow=none;html=1;rounded=0;entryX=1;entryY=0.5;entryDx=0;entryDy=0;exitX=0;exitY=1;exitDx=0;exitDy=0;" parent="1" source="1KVyCKjMjqigg998JSWU-1" target="Yepnfq_wEx3DEl57RGc4-13" edge="1">
          <mxGeometry relative="1" as="geometry">
            <mxPoint x="220" y="340" as="sourcePoint" />
            <mxPoint x="380" y="340" as="targetPoint" />
          </mxGeometry>
        </mxCell>
        <mxCell id="Yepnfq_wEx3DEl57RGc4-17" value="N" style="resizable=0;html=1;whiteSpace=wrap;align=right;verticalAlign=bottom;" parent="Yepnfq_wEx3DEl57RGc4-16" connectable="0" vertex="1">
          <mxGeometry x="1" relative="1" as="geometry" />
        </mxCell>
        <mxCell id="1KVyCKjMjqigg998JSWU-24" value="Description" style="ellipse;whiteSpace=wrap;html=1;align=center;" parent="1" vertex="1">
          <mxGeometry x="250" y="90" width="100" height="40" as="geometry" />
        </mxCell>
        <mxCell id="Yepnfq_wEx3DEl57RGc4-19" value="Id&lt;span style=&quot;color: rgba(0, 0, 0, 0); font-family: monospace; font-size: 0px; text-align: start; text-wrap: nowrap;&quot;&gt;%3CmxGraphModel%3E%3Croot%3E%3CmxCell%20id%3D%220%22%2F%3E%3CmxCell%20id%3D%221%22%20parent%3D%220%22%2F%3E%3CmxCell%20id%3D%222%22%20value%3D%22Name%22%20style%3D%22ellipse%3BwhiteSpace%3Dwrap%3Bhtml%3D1%3Balign%3Dcenter%3B%22%20vertex%3D%221%22%20parent%3D%221%22%3E%3CmxGeometry%20x%3D%22-30%22%20y%3D%22270%22%20width%3D%22100%22%20height%3D%2240%22%20as%3D%22geometry%22%2F%3E%3C%2FmxCell%3E%3C%2Froot%3E%3C%2FmxGraphModel%3E&lt;/span&gt;" style="ellipse;whiteSpace=wrap;html=1;align=center;fontStyle=4;" parent="1" vertex="1">
          <mxGeometry x="20" y="-230" width="100" height="40" as="geometry" />
        </mxCell>
        <mxCell id="Yepnfq_wEx3DEl57RGc4-20" value="" style="endArrow=none;html=1;rounded=0;entryX=0.5;entryY=1;entryDx=0;entryDy=0;exitX=0.75;exitY=0;exitDx=0;exitDy=0;" parent="1" source="1KVyCKjMjqigg998JSWU-33" target="Yepnfq_wEx3DEl57RGc4-19" edge="1">
          <mxGeometry relative="1" as="geometry">
            <mxPoint x="70" y="-230" as="sourcePoint" />
            <mxPoint x="90" y="-250" as="targetPoint" />
          </mxGeometry>
        </mxCell>
        <mxCell id="Yepnfq_wEx3DEl57RGc4-21" value="do" style="shape=rhombus;perimeter=rhombusPerimeter;whiteSpace=wrap;html=1;align=center;" parent="1" vertex="1">
          <mxGeometry x="200" y="-110" width="120" height="60" as="geometry" />
        </mxCell>
        <mxCell id="Yepnfq_wEx3DEl57RGc4-24" value="result" style="ellipse;whiteSpace=wrap;html=1;align=center;" parent="1" vertex="1">
          <mxGeometry x="230" y="-190" width="100" height="40" as="geometry" />
        </mxCell>
        <mxCell id="Yepnfq_wEx3DEl57RGc4-25" value="" style="endArrow=none;html=1;rounded=0;entryX=0.5;entryY=1;entryDx=0;entryDy=0;exitX=0.5;exitY=0;exitDx=0;exitDy=0;" parent="1" source="Yepnfq_wEx3DEl57RGc4-21" target="Yepnfq_wEx3DEl57RGc4-24" edge="1">
          <mxGeometry relative="1" as="geometry">
            <mxPoint x="190" y="-20" as="sourcePoint" />
            <mxPoint x="350" y="-20" as="targetPoint" />
          </mxGeometry>
        </mxCell>
        <mxCell id="Yepnfq_wEx3DEl57RGc4-32" value="Acount" style="whiteSpace=wrap;html=1;align=center;" parent="1" vertex="1">
          <mxGeometry x="-470" y="130" width="100" height="40" as="geometry" />
        </mxCell>
        <mxCell id="Yepnfq_wEx3DEl57RGc4-33" value="Contains" style="shape=rhombus;perimeter=rhombusPerimeter;whiteSpace=wrap;html=1;align=center;" parent="1" vertex="1">
          <mxGeometry x="-350" y="320" width="80" height="50" as="geometry" />
        </mxCell>
        <mxCell id="Yepnfq_wEx3DEl57RGc4-34" value="contains" style="shape=rhombus;perimeter=rhombusPerimeter;whiteSpace=wrap;html=1;align=center;" parent="1" vertex="1">
          <mxGeometry x="-330" y="-55" width="80" height="50" as="geometry" />
        </mxCell>
        <mxCell id="Yepnfq_wEx3DEl57RGc4-36" value="" style="shape=link;html=1;rounded=0;exitX=0;exitY=0;exitDx=0;exitDy=0;entryX=0.5;entryY=1;entryDx=0;entryDy=0;" parent="1" source="1KVyCKjMjqigg998JSWU-34" target="Yepnfq_wEx3DEl57RGc4-33" edge="1">
          <mxGeometry relative="1" as="geometry">
            <mxPoint x="280" y="170" as="sourcePoint" />
            <mxPoint x="440" y="170" as="targetPoint" />
          </mxGeometry>
        </mxCell>
        <mxCell id="Yepnfq_wEx3DEl57RGc4-37" value="1" style="resizable=0;html=1;whiteSpace=wrap;align=right;verticalAlign=bottom;" parent="Yepnfq_wEx3DEl57RGc4-36" connectable="0" vertex="1">
          <mxGeometry x="1" relative="1" as="geometry" />
        </mxCell>
        <mxCell id="Yepnfq_wEx3DEl57RGc4-38" value="" style="shape=link;html=1;rounded=0;exitX=0;exitY=0.5;exitDx=0;exitDy=0;entryX=0.5;entryY=0;entryDx=0;entryDy=0;" parent="1" source="1KVyCKjMjqigg998JSWU-33" target="Yepnfq_wEx3DEl57RGc4-34" edge="1">
          <mxGeometry relative="1" as="geometry">
            <mxPoint x="280" y="170" as="sourcePoint" />
            <mxPoint x="440" y="170" as="targetPoint" />
          </mxGeometry>
        </mxCell>
        <mxCell id="Yepnfq_wEx3DEl57RGc4-39" value="1" style="resizable=0;html=1;whiteSpace=wrap;align=right;verticalAlign=bottom;" parent="Yepnfq_wEx3DEl57RGc4-38" connectable="0" vertex="1">
          <mxGeometry x="1" relative="1" as="geometry" />
        </mxCell>
        <mxCell id="Yepnfq_wEx3DEl57RGc4-40" value="" style="shape=link;html=1;rounded=0;exitX=0.5;exitY=1;exitDx=0;exitDy=0;entryX=1;entryY=0;entryDx=0;entryDy=0;" parent="1" source="Yepnfq_wEx3DEl57RGc4-34" target="Yepnfq_wEx3DEl57RGc4-32" edge="1">
          <mxGeometry relative="1" as="geometry">
            <mxPoint x="290" y="180" as="sourcePoint" />
            <mxPoint x="450" y="180" as="targetPoint" />
          </mxGeometry>
        </mxCell>
        <mxCell id="Yepnfq_wEx3DEl57RGc4-41" value="1" style="resizable=0;html=1;whiteSpace=wrap;align=right;verticalAlign=bottom;" parent="Yepnfq_wEx3DEl57RGc4-40" connectable="0" vertex="1">
          <mxGeometry x="1" relative="1" as="geometry">
            <mxPoint x="60" y="-130" as="offset" />
          </mxGeometry>
        </mxCell>
        <mxCell id="Yepnfq_wEx3DEl57RGc4-42" value="" style="shape=link;html=1;rounded=0;exitX=1;exitY=1;exitDx=0;exitDy=0;entryX=0.5;entryY=0;entryDx=0;entryDy=0;" parent="1" source="Yepnfq_wEx3DEl57RGc4-32" target="Yepnfq_wEx3DEl57RGc4-33" edge="1">
          <mxGeometry relative="1" as="geometry">
            <mxPoint x="300" y="190" as="sourcePoint" />
            <mxPoint x="460" y="190" as="targetPoint" />
          </mxGeometry>
        </mxCell>
        <mxCell id="Yepnfq_wEx3DEl57RGc4-43" value="1" style="resizable=0;html=1;whiteSpace=wrap;align=right;verticalAlign=bottom;" parent="Yepnfq_wEx3DEl57RGc4-42" connectable="0" vertex="1">
          <mxGeometry x="1" relative="1" as="geometry">
            <mxPoint x="-10" y="10" as="offset" />
          </mxGeometry>
        </mxCell>
        <mxCell id="Yepnfq_wEx3DEl57RGc4-44" value="password" style="ellipse;whiteSpace=wrap;html=1;align=center;" parent="1" vertex="1">
          <mxGeometry x="-590" y="60" width="100" height="40" as="geometry" />
        </mxCell>
        <mxCell id="Yepnfq_wEx3DEl57RGc4-45" value="Email" style="ellipse;whiteSpace=wrap;html=1;align=center;" parent="1" vertex="1">
          <mxGeometry x="-610" y="130" width="100" height="40" as="geometry" />
        </mxCell>
        <mxCell id="Yepnfq_wEx3DEl57RGc4-46" value="Username" style="ellipse;whiteSpace=wrap;html=1;align=center;" parent="1" vertex="1">
          <mxGeometry x="-590" y="200" width="100" height="40" as="geometry" />
        </mxCell>
        <mxCell id="Yepnfq_wEx3DEl57RGc4-47" value="" style="endArrow=none;html=1;rounded=0;exitX=1;exitY=0.5;exitDx=0;exitDy=0;entryX=0;entryY=0;entryDx=0;entryDy=0;" parent="1" source="Yepnfq_wEx3DEl57RGc4-44" target="Yepnfq_wEx3DEl57RGc4-32" edge="1">
          <mxGeometry relative="1" as="geometry">
            <mxPoint x="230" y="170" as="sourcePoint" />
            <mxPoint x="390" y="170" as="targetPoint" />
          </mxGeometry>
        </mxCell>
        <mxCell id="Yepnfq_wEx3DEl57RGc4-48" value="" style="endArrow=none;html=1;rounded=0;exitX=0;exitY=0.5;exitDx=0;exitDy=0;entryX=1;entryY=0.5;entryDx=0;entryDy=0;" parent="1" source="Yepnfq_wEx3DEl57RGc4-32" target="Yepnfq_wEx3DEl57RGc4-45" edge="1">
          <mxGeometry relative="1" as="geometry">
            <mxPoint x="240" y="180" as="sourcePoint" />
            <mxPoint x="400" y="180" as="targetPoint" />
          </mxGeometry>
        </mxCell>
        <mxCell id="Yepnfq_wEx3DEl57RGc4-49" value="" style="endArrow=none;html=1;rounded=0;exitX=0;exitY=1;exitDx=0;exitDy=0;entryX=0.5;entryY=0;entryDx=0;entryDy=0;" parent="1" source="Yepnfq_wEx3DEl57RGc4-32" target="Yepnfq_wEx3DEl57RGc4-46" edge="1">
          <mxGeometry relative="1" as="geometry">
            <mxPoint x="250" y="190" as="sourcePoint" />
            <mxPoint x="410" y="190" as="targetPoint" />
          </mxGeometry>
        </mxCell>
        <mxCell id="WoInB5LvaGF-hetA2x_S-15" value="Make" style="shape=rhombus;perimeter=rhombusPerimeter;whiteSpace=wrap;html=1;align=center;" parent="1" vertex="1">
          <mxGeometry x="-220" y="90" width="120" height="60" as="geometry" />
        </mxCell>
        <mxCell id="WoInB5LvaGF-hetA2x_S-16" value="" style="endArrow=none;html=1;rounded=0;entryX=1;entryY=0.5;entryDx=0;entryDy=0;exitX=0;exitY=0.5;exitDx=0;exitDy=0;" parent="1" source="1KVyCKjMjqigg998JSWU-22" target="WoInB5LvaGF-hetA2x_S-15" edge="1">
          <mxGeometry relative="1" as="geometry">
            <mxPoint x="-90" y="340" as="sourcePoint" />
            <mxPoint x="70" y="340" as="targetPoint" />
          </mxGeometry>
        </mxCell>
        <mxCell id="WoInB5LvaGF-hetA2x_S-17" value="N" style="resizable=0;html=1;whiteSpace=wrap;align=right;verticalAlign=bottom;" parent="WoInB5LvaGF-hetA2x_S-16" connectable="0" vertex="1">
          <mxGeometry x="1" relative="1" as="geometry" />
        </mxCell>
        <mxCell id="WoInB5LvaGF-hetA2x_S-18" value="" style="endArrow=none;html=1;rounded=0;entryX=0.5;entryY=0;entryDx=0;entryDy=0;" parent="1" target="WoInB5LvaGF-hetA2x_S-15" edge="1">
          <mxGeometry relative="1" as="geometry">
            <mxPoint x="410" y="40" as="sourcePoint" />
            <mxPoint x="80" y="350" as="targetPoint" />
          </mxGeometry>
        </mxCell>
        <mxCell id="WoInB5LvaGF-hetA2x_S-19" value="N" style="resizable=0;html=1;whiteSpace=wrap;align=right;verticalAlign=bottom;" parent="WoInB5LvaGF-hetA2x_S-18" connectable="0" vertex="1">
          <mxGeometry x="1" relative="1" as="geometry" />
        </mxCell>
        <mxCell id="WoInB5LvaGF-hetA2x_S-20" value="" style="endArrow=none;html=1;rounded=0;entryX=0.5;entryY=1;entryDx=0;entryDy=0;exitX=0.25;exitY=0;exitDx=0;exitDy=0;" parent="1" source="1KVyCKjMjqigg998JSWU-34" target="WoInB5LvaGF-hetA2x_S-15" edge="1">
          <mxGeometry relative="1" as="geometry">
            <mxPoint x="-70" y="360" as="sourcePoint" />
            <mxPoint x="90" y="360" as="targetPoint" />
          </mxGeometry>
        </mxCell>
        <mxCell id="WoInB5LvaGF-hetA2x_S-21" value="N" style="resizable=0;html=1;whiteSpace=wrap;align=right;verticalAlign=bottom;" parent="WoInB5LvaGF-hetA2x_S-20" connectable="0" vertex="1">
          <mxGeometry x="1" relative="1" as="geometry" />
        </mxCell>
        <mxCell id="DcSMMkstFJ6gAEz0ftMx-13" value="" style="endArrow=none;html=1;rounded=0;exitX=0.5;exitY=1;exitDx=0;exitDy=0;entryX=1;entryY=0;entryDx=0;entryDy=0;" parent="1" target="1KVyCKjMjqigg998JSWU-23" edge="1">
          <mxGeometry relative="1" as="geometry">
            <mxPoint x="340" y="190" as="sourcePoint" />
            <mxPoint x="270" y="240" as="targetPoint" />
          </mxGeometry>
        </mxCell>
        <mxCell id="1KVyCKjMjqigg998JSWU-23" value="Max Degree" style="ellipse;whiteSpace=wrap;html=1;align=center;" parent="1" vertex="1">
          <mxGeometry x="300" y="160" width="100" height="40" as="geometry" />
        </mxCell>
        <mxCell id="DcSMMkstFJ6gAEz0ftMx-14" value="" style="endArrow=none;html=1;rounded=0;entryX=1;entryY=1;entryDx=0;entryDy=0;exitX=0;exitY=0.5;exitDx=0;exitDy=0;" parent="1" source="Yepnfq_wEx3DEl57RGc4-21" target="1KVyCKjMjqigg998JSWU-33" edge="1">
          <mxGeometry relative="1" as="geometry">
            <mxPoint x="-90" y="-30.710000000000008" as="sourcePoint" />
            <mxPoint x="70" y="-30.710000000000008" as="targetPoint" />
          </mxGeometry>
        </mxCell>
        <mxCell id="DcSMMkstFJ6gAEz0ftMx-15" value="M" style="resizable=0;html=1;whiteSpace=wrap;align=left;verticalAlign=bottom;" parent="DcSMMkstFJ6gAEz0ftMx-14" connectable="0" vertex="1">
          <mxGeometry x="-1" relative="1" as="geometry" />
        </mxCell>
        <mxCell id="DcSMMkstFJ6gAEz0ftMx-16" value="N" style="resizable=0;html=1;whiteSpace=wrap;align=right;verticalAlign=bottom;" parent="DcSMMkstFJ6gAEz0ftMx-14" connectable="0" vertex="1">
          <mxGeometry x="1" relative="1" as="geometry" />
        </mxCell>
        <mxCell id="DcSMMkstFJ6gAEz0ftMx-17" value="" style="endArrow=none;html=1;rounded=0;" parent="1" edge="1">
          <mxGeometry relative="1" as="geometry">
            <mxPoint x="320" y="-80" as="sourcePoint" />
            <mxPoint x="410" as="targetPoint" />
          </mxGeometry>
        </mxCell>
        <mxCell id="DcSMMkstFJ6gAEz0ftMx-18" value="M" style="resizable=0;html=1;whiteSpace=wrap;align=left;verticalAlign=bottom;" parent="DcSMMkstFJ6gAEz0ftMx-17" connectable="0" vertex="1">
          <mxGeometry x="-1" relative="1" as="geometry" />
        </mxCell>
        <mxCell id="DcSMMkstFJ6gAEz0ftMx-19" value="N" style="resizable=0;html=1;whiteSpace=wrap;align=right;verticalAlign=bottom;" parent="DcSMMkstFJ6gAEz0ftMx-17" connectable="0" vertex="1">
          <mxGeometry x="1" relative="1" as="geometry" />
        </mxCell>
        <mxCell id="DcSMMkstFJ6gAEz0ftMx-20" value="answer" style="shape=rhombus;perimeter=rhombusPerimeter;whiteSpace=wrap;html=1;align=center;" parent="1" vertex="1">
          <mxGeometry x="560" y="-300" width="120" height="60" as="geometry" />
        </mxCell>
        <mxCell id="DcSMMkstFJ6gAEz0ftMx-21" value="" style="endArrow=none;html=1;rounded=0;entryX=1;entryY=0.5;entryDx=0;entryDy=0;exitX=1;exitY=0.25;exitDx=0;exitDy=0;" parent="1" source="1KVyCKjMjqigg998JSWU-1" target="DcSMMkstFJ6gAEz0ftMx-20" edge="1">
          <mxGeometry relative="1" as="geometry">
            <mxPoint x="150" y="-260" as="sourcePoint" />
            <mxPoint x="310" y="-260" as="targetPoint" />
          </mxGeometry>
        </mxCell>
        <mxCell id="DcSMMkstFJ6gAEz0ftMx-22" value="M" style="resizable=0;html=1;whiteSpace=wrap;align=left;verticalAlign=bottom;" parent="DcSMMkstFJ6gAEz0ftMx-21" connectable="0" vertex="1">
          <mxGeometry x="-1" relative="1" as="geometry" />
        </mxCell>
        <mxCell id="DcSMMkstFJ6gAEz0ftMx-23" value="N" style="resizable=0;html=1;whiteSpace=wrap;align=right;verticalAlign=bottom;" parent="DcSMMkstFJ6gAEz0ftMx-21" connectable="0" vertex="1">
          <mxGeometry x="1" relative="1" as="geometry" />
        </mxCell>
        <mxCell id="DcSMMkstFJ6gAEz0ftMx-24" value="" style="endArrow=none;html=1;rounded=0;exitX=1;exitY=0;exitDx=0;exitDy=0;entryX=0;entryY=0.5;entryDx=0;entryDy=0;" parent="1" source="1KVyCKjMjqigg998JSWU-33" target="DcSMMkstFJ6gAEz0ftMx-20" edge="1">
          <mxGeometry relative="1" as="geometry">
            <mxPoint x="-70" y="-10.710000000000008" as="sourcePoint" />
            <mxPoint x="90" y="-10.710000000000008" as="targetPoint" />
          </mxGeometry>
        </mxCell>
        <mxCell id="DcSMMkstFJ6gAEz0ftMx-25" value="M" style="resizable=0;html=1;whiteSpace=wrap;align=left;verticalAlign=bottom;" parent="DcSMMkstFJ6gAEz0ftMx-24" connectable="0" vertex="1">
          <mxGeometry x="-1" relative="1" as="geometry" />
        </mxCell>
        <mxCell id="DcSMMkstFJ6gAEz0ftMx-26" value="N" style="resizable=0;html=1;whiteSpace=wrap;align=right;verticalAlign=bottom;" parent="DcSMMkstFJ6gAEz0ftMx-24" connectable="0" vertex="1">
          <mxGeometry x="1" relative="1" as="geometry" />
        </mxCell>
        <mxCell id="Rd9QAnQidIXUKr1M_sx5-1" value="year" style="ellipse;whiteSpace=wrap;html=1;align=center;" vertex="1" parent="1">
          <mxGeometry x="-260" y="30" width="100" height="40" as="geometry" />
        </mxCell>
        <mxCell id="Rd9QAnQidIXUKr1M_sx5-2" value="" style="endArrow=none;html=1;rounded=0;exitX=0.5;exitY=1;exitDx=0;exitDy=0;" edge="1" parent="1" source="Rd9QAnQidIXUKr1M_sx5-1" target="WoInB5LvaGF-hetA2x_S-15">
          <mxGeometry relative="1" as="geometry">
            <mxPoint x="-90" y="200" as="sourcePoint" />
            <mxPoint x="70" y="200" as="targetPoint" />
          </mxGeometry>
        </mxCell>
      </root>
    </mxGraphModel>
  </diagram>
</mxfile>
